<svg version="1.1" id="Layer_1" xmlns="http://www.w3.org/2000/svg" x="0" y="0" viewBox="0 0 286.3 53.86" style="enable-background:new 0 0 286.3 53.86" xml:space="preserve"><style>.st1{fill:#fff}</style><g id="Logo_W"><path class="st1" d="M110.63 46.14v4.12c0 .47-.06.9-.19 1.29s-.33.73-.6 1.02c-.27.28-.62.51-1.05.67-.43.16-.94.25-1.53.25-.72 0-1.35-.15-1.9-.45-.55-.3-.97-.73-1.27-1.3l.87-.48c.24.44.57.77.98.98.41.22.85.32 1.31.32.47 0 .85-.06 1.16-.17.31-.11.55-.28.73-.49s.31-.47.38-.77c.07-.3.11-.64.11-1.02v-3.97h1zm19.62 0v.92h-5.31v2.11h4.76v.92h-4.76v2.28h5.5v.93h-6.51v-7.16h6.32zm13.87 0 2.08 6.24h.35l1.83-6.24h1.53l1.89 6.24h.36l2.08-6.24h1.06l-2.51 7.16h-1.72l-1.81-6.1h-.25l-1.77 6.1h-1.71l-2.5-7.16h1.09zm30.25 0v.92h-5.31v2.11h4.76v.92h-4.76v2.28h5.5v.93h-6.51v-7.16h6.32zm14.09 0v6.23h5.36v.93h-6.37v-7.16h1.01zm22.27 0c.41 0 .78.06 1.13.19.35.13.65.31.91.55.26.24.46.52.62.86.15.34.23.71.23 1.11 0 .6-.14 1.1-.43 1.52-.29.41-.67.72-1.15.92l1.14 2.01h-1.11l-.97-1.74h-3.52v1.74h-1.01v-7.16h4.16zm-3.16 4.49h3.15c.56 0 1.02-.16 1.37-.47.35-.31.52-.75.52-1.31 0-.54-.17-.98-.52-1.3-.35-.32-.8-.49-1.37-.49h-3.15v3.57zm19.32-4.49 2.71 4.3h.19l2.65-4.3h1.18l-3.46 5.37v1.79h-1.01v-1.79l-3.44-5.37h1.18zM107.84 29.19h9.46v3.42h-13.02v-14.5h3.56v11.08zm18.05 3.45h3.59V18.08h-3.59v14.56zm23.78-6.52-7.7-8.01h-1.73v14.5h3.38v-7.98l7.7 7.98h1.73v-14.5h-3.38v8.01zm-57.54-8.01h3.9l-7.42 14.5H86.4l-7.46-14.5h3.94l1.59 3.14h6.08l1.58-3.14zm-3.07 6.08h-3.11l1.55 3.25 1.56-3.25zm-17.35-9.88h-4.8l-8.8 7.56v-7.56h-3.63v18.3h3.63v-6.39l3.14-2.66 6.53 9.05h4.42l-8.25-11.46 7.76-6.84zM223 24.6c-.91-.66-2.08-.87-3.17-1.01-1.32-.17-2.64-.26-3.97-.39-.66-.06-1.49-.22-1.49-1.05 0-.39.29-.71.86-.97.44-.21 1.01-.31 1.73-.31 1.15 0 2.11.14 2.87.41.88.25 1.75.66 2.62 1.21l1.55-2.66c-.87-.62-1.8-1.09-2.76-1.42-1.31-.44-2.59-.66-3.83-.66-2.09 0-3.73.45-4.9 1.35-1.17.9-1.76 2.11-1.76 3.62 0 1.17.45 2.07 1.35 2.69.64.48 1.82.82 3.52 1l1.8.1c.9.07 1.58.14 2.04.21.39.07.71.19.95.36.24.17.4.33.47.48.07.15.1.29.1.43 0 .58-.33 1.01-1 1.31-.48.21-1.17.31-2.07.31-1.2 0-2.36-.19-3.49-.59-.94-.3-1.84-.7-2.69-1.21l-1.62 3c.83.51 1.92 1 3.28 1.48 1.38.46 2.88.69 4.49.69 2.09 0 3.73-.41 4.9-1.24 1.24-.92 1.86-2.21 1.86-3.87-.01-1.41-.56-2.51-1.64-3.27zm21.37-6.46-6.35 5.35v-5.35h-3.56v14.47h3.56v-5.04l1.9-1.62 5.04 6.66h4.18l-6.63-8.84 6.7-5.63h-4.84zm20.08 4.42-3.94-4.45h-4.73l6.9 7.53v6.97h3.52V25.6l6.97-7.49h-4.83l-3.89 4.45zm16.84-4.48v14.57h3.59V18.08h-3.59zm-86.07 9.21-4.42-9.18h-3.83l7.25 14.5h2l7.25-14.5h-3.97l-4.28 9.18zm-17.4-7.39c-1.01-.88-2.22-1.46-3.58-1.8l-1.63 2.98c1.05.16 1.93.55 2.64 1.18.93.84 1.4 1.86 1.4 3.06 0 1.22-.46 2.26-1.36 3.11-.91.85-2.16 1.28-3.75 1.28-1.54 0-2.77-.42-3.69-1.26-.92-.84-1.38-1.88-1.38-3.12 0-1.2.46-2.22 1.38-3.06.7-.64 1.59-1.03 2.65-1.19l-1.63-2.98c-1.37.34-2.59.91-3.6 1.8-1.62 1.43-2.43 3.25-2.43 5.46 0 2.19.82 4.01 2.45 5.47 1.63 1.46 3.72 2.19 6.25 2.19 2.56 0 4.65-.73 6.28-2.18 1.63-1.45 2.45-3.28 2.45-5.49 0-2.2-.82-4.02-2.45-5.45zm-2.94-5.56h-6.66v1.14h2l1.33 2.89 1.33-2.89h2v-1.14zM22.54.38C10.89.38 1.42 9.86 1.42 21.5c0 11.65 9.47 21.12 21.12 21.12s21.12-9.47 21.12-21.12C43.66 9.86 34.18.38 22.54.38zM8.32 24.56c-1.33-.83-2.36-2.01-3.08-3.49l4.3-3.45s.39 1.72 1.72 2.55c.63.39 1.28.58 2 .58 2.58 0 3.35-1.64 3.35-3.51V7.69h5.44v9.86c0 1.11-.17 2.18-.52 3.17a7.254 7.254 0 0 1-1.65 2.69c-.74.77-1.68 1.38-2.79 1.82-1.1.44-2.39.66-3.84.66-1.86-.01-3.53-.45-4.93-1.33zm28.29 8.2h-6.67l-5.98-7.74-1.9 1.5v6.24h-5.4v-4.89c.46-.12.91-.25 1.34-.42 1.43-.57 2.65-1.37 3.62-2.38a9.742 9.742 0 0 0 2.19-3.57c.36-1.03.56-2.12.62-3.25l4.82-3.87h7.63l-8.82 7.26 8.55 11.12z"/></g></svg>