<?xml version="1.0" encoding="utf-8"?>
<!-- Generator: Adobe Illustrator 27.2.0, SVG Export Plug-In . SVG Version: 6.00 Build 0)  -->
<svg version="1.1" id="Layer_1" xmlns="http://www.w3.org/2000/svg" xmlns:xlink="http://www.w3.org/1999/xlink" x="0px" y="0px"
	 viewBox="0 0 229.61 39.69" style="enable-background:new 0 0 229.61 39.69;" xml:space="preserve">
<style type="text/css">
	.st0{fill:#FFFFFF;}
</style>
<path id="logo_x2B_" class="st0" d="M133.29,38.02h5.28v0.92h-6.27v-7.05h0.99V38.02z M114.19,35.78h4.69v-0.91h-4.69V32.8h5.22
	v-0.9h-6.22v7.05h6.41v-0.92h-5.42V35.78z M97.55,38.03H97.2l-1.86-6.14h-1.5l-1.8,6.14h-0.34l-2.05-6.14h-1.07l2.46,7.05h1.68
	l1.75-6h0.24l1.78,6h1.7l2.47-7.05h-1.04L97.55,38.03z M55.69,35.8c0,0.37-0.04,0.71-0.11,1c-0.07,0.29-0.2,0.55-0.38,0.76
	c-0.18,0.21-0.42,0.37-0.72,0.48c-0.3,0.11-0.68,0.17-1.14,0.17c-0.45,0-0.88-0.11-1.29-0.32c-0.41-0.21-0.73-0.54-0.97-0.97
	l-0.85,0.47c0.3,0.56,0.72,0.99,1.25,1.28c0.54,0.29,1.16,0.44,1.87,0.44c0.59,0,1.09-0.08,1.51-0.24c0.42-0.16,0.76-0.38,1.03-0.66
	c0.27-0.28,0.47-0.61,0.59-1c0.13-0.39,0.19-0.81,0.19-1.27v-4.05h-0.99V35.8z M70.77,35.78h4.69v-0.91h-4.69V32.8h5.22v-0.9h-6.22
	v7.05h6.41v-0.92h-5.42V35.78z M173.96,36.12h-0.19l-2.66-4.23h-1.16l3.39,5.29v1.76h0.99v-1.76l3.4-5.29h-1.16L173.96,36.12z
	 M157.82,33.47c0.15,0.33,0.22,0.7,0.22,1.1c0,0.59-0.14,1.08-0.43,1.49c-0.28,0.41-0.66,0.71-1.13,0.9l1.12,1.98h-1.1l-0.96-1.71
	h-3.47v1.71h-0.99v-7.05h4.1c0.4,0,0.77,0.06,1.12,0.19c0.34,0.13,0.64,0.31,0.9,0.54C157.47,32.86,157.67,33.14,157.82,33.47z
	 M157.05,34.57c0-0.54-0.17-0.96-0.52-1.28c-0.34-0.32-0.79-0.48-1.34-0.48h-3.1v3.51h3.1c0.55,0,1-0.15,1.34-0.46
	C156.88,35.55,157.05,35.12,157.05,34.57z M18.37,0.57h-4.72L4.99,8.01V0.57H1.42v18.01h3.57v-6.29l3.09-2.62l6.42,8.9h4.35
	L10.73,7.3L18.37,0.57z M224.65,4.27v14.34h3.53V4.27H224.65z M38.47,4.31h3.84l-7.31,14.27h-2.18L25.49,4.31h3.87l1.56,3.09h5.98
	L38.47,4.31z M35.45,10.29h-3.06l1.53,3.19L35.45,10.29z M75.23,4.27H71.7v14.34h3.53V4.27z M208.08,8.69l-3.87-4.38h-4.65l6.8,7.41
	v6.86h3.47v-6.9l6.86-7.37h-4.76L208.08,8.69z M116.64,4.56l1.31-2.84h1.97V0.6h-6.56v1.12h1.97L116.64,4.56z M167.28,10.7
	c-0.9-0.65-2.05-0.86-3.12-0.99c-1.3-0.17-2.6-0.26-3.9-0.38c-0.65-0.06-1.47-0.22-1.47-1.04c0-0.38,0.28-0.7,0.85-0.95
	c0.43-0.2,1-0.31,1.7-0.31c1.13,0,2.07,0.14,2.82,0.41c0.86,0.25,1.72,0.65,2.58,1.19l1.53-2.62c-0.86-0.61-1.77-1.08-2.72-1.39
	c-1.29-0.43-2.55-0.64-3.77-0.64c-2.06,0-3.67,0.44-4.83,1.33c-1.15,0.88-1.73,2.07-1.73,3.57c0,1.16,0.44,2.04,1.32,2.65
	c0.63,0.48,1.79,0.8,3.47,0.99l1.77,0.1c0.88,0.07,1.55,0.14,2.01,0.2c0.38,0.07,0.7,0.19,0.93,0.36c0.24,0.17,0.39,0.33,0.46,0.47
	c0.07,0.15,0.1,0.29,0.1,0.43c0,0.57-0.33,1-0.98,1.29c-0.48,0.2-1.16,0.31-2.04,0.31c-1.18,0-2.32-0.19-3.43-0.58
	c-0.93-0.29-1.81-0.69-2.65-1.19l-1.6,2.96c0.82,0.5,1.89,0.99,3.23,1.46c1.36,0.45,2.83,0.68,4.42,0.68c2.06,0,3.67-0.41,4.83-1.22
	c1.22-0.91,1.84-2.18,1.84-3.81C168.88,12.53,168.35,11.44,167.28,10.7z M139.93,13.35l-4.35-9.04h-3.77l7.14,14.27h1.97l7.14-14.27
	h-3.91L139.93,13.35z M53.93,4.31h-3.5v14.27h12.81v-3.36h-9.31V4.31z M119.28,4.31l-1.6,2.93c1.04,0.15,1.9,0.54,2.6,1.16
	c0.92,0.83,1.38,1.83,1.38,3.01c0,1.2-0.45,2.22-1.34,3.06c-0.89,0.84-2.12,1.26-3.69,1.26c-1.52,0-2.73-0.41-3.64-1.24
	c-0.91-0.83-1.36-1.85-1.36-3.08c0-1.18,0.45-2.18,1.36-3.01c0.69-0.63,1.56-1.02,2.61-1.17l-1.6-2.94
	c-1.35,0.33-2.54,0.9-3.54,1.77c-1.6,1.41-2.4,3.19-2.4,5.37c0,2.15,0.8,3.95,2.41,5.39c1.61,1.44,3.66,2.16,6.15,2.16
	c2.52,0,4.58-0.71,6.19-2.14c1.61-1.43,2.41-3.23,2.41-5.4c0-2.18-0.81-3.96-2.41-5.37C121.81,5.2,120.62,4.64,119.28,4.31z
	 M89.15,10.73l7.58,7.85h1.7V4.31H95.1v7.88l-7.58-7.88h-1.7v14.27h3.33V10.73z M188.31,4.34l-6.25,5.27V4.34h-3.5v14.24h3.5v-4.96
	l1.87-1.6l4.96,6.56H193l-6.52-8.7l6.59-5.54H188.31z"/>
</svg>
