<?xml version="1.0" encoding="utf-8"?>
<!-- Generator: Adobe Illustrator 27.2.0, SVG Export Plug-In . SVG Version: 6.00 Build 0)  -->
<svg version="1.1" id="Layer_1" xmlns="http://www.w3.org/2000/svg" xmlns:xlink="http://www.w3.org/1999/xlink" x="0px" y="0px"
	 viewBox="0 0 286.3 53.86" style="enable-background:new 0 0 286.3 53.86;" xml:space="preserve">
<style type="text/css">
	.st0{display:none;fill:#FFFFFF;}
	.st1{fill:#FFFFFF;}
</style>
<g id="Logo_W">
	<circle class="st0" cx="22.55" cy="21.53" r="19"/>
	<path class="st1" d="M110.63,46.14v4.12c0,0.47-0.06,0.9-0.19,1.29c-0.13,0.39-0.33,0.73-0.6,1.02c-0.27,0.28-0.62,0.51-1.05,0.67
		c-0.43,0.16-0.94,0.25-1.53,0.25c-0.72,0-1.35-0.15-1.9-0.45c-0.55-0.3-0.97-0.73-1.27-1.3l0.87-0.48
		c0.24,0.44,0.57,0.77,0.98,0.98c0.41,0.22,0.85,0.32,1.31,0.32c0.47,0,0.85-0.06,1.16-0.17c0.31-0.11,0.55-0.28,0.73-0.49
		s0.31-0.47,0.38-0.77c0.07-0.3,0.11-0.64,0.11-1.02v-3.97H110.63z M130.25,46.14v0.92h-5.31v2.11h4.76v0.92h-4.76v2.28h5.5v0.93
		h-6.51v-7.16H130.25z M144.12,46.14l2.08,6.24h0.35l1.83-6.24h1.53l1.89,6.24h0.36l2.08-6.24h1.06l-2.51,7.16h-1.72l-1.81-6.1
		h-0.25l-1.77,6.1h-1.71l-2.5-7.16H144.12z M174.37,46.14v0.92h-5.31v2.11h4.76v0.92h-4.76v2.28h5.5v0.93h-6.51v-7.16H174.37z
		 M188.46,46.14v6.23h5.36v0.93h-6.37v-7.16H188.46z M210.73,46.14c0.41,0,0.78,0.06,1.13,0.19c0.35,0.13,0.65,0.31,0.91,0.55
		c0.26,0.24,0.46,0.52,0.62,0.86c0.15,0.34,0.23,0.71,0.23,1.11c0,0.6-0.14,1.1-0.43,1.52c-0.29,0.41-0.67,0.72-1.15,0.92l1.14,2.01
		h-1.11l-0.97-1.74h-3.52v1.74h-1.01v-7.16H210.73z M207.57,50.63h3.15c0.56,0,1.02-0.16,1.37-0.47c0.35-0.31,0.52-0.75,0.52-1.31
		c0-0.54-0.17-0.98-0.52-1.3c-0.35-0.32-0.8-0.49-1.37-0.49h-3.15V50.63z M226.89,46.14l2.71,4.3h0.19l2.65-4.3h1.18l-3.46,5.37
		v1.79h-1.01v-1.79l-3.44-5.37H226.89z"/>
	<path class="st1" d="M107.84,29.19h9.46v3.42h-13.02v-14.5h3.56V29.19z M125.89,32.64h3.59V18.08h-3.59V32.64z M149.67,26.12
		l-7.7-8.01h-1.73v14.5h3.38v-7.98l7.7,7.98h1.73v-14.5h-3.38V26.12z M92.13,18.11h3.9l-7.42,14.5H86.4l-7.46-14.5h3.94l1.59,3.14
		h6.08L92.13,18.11z M89.06,24.19h-3.11l1.55,3.25L89.06,24.19z M71.71,14.31h-4.8l-8.8,7.56v-7.56h-3.63v18.3h3.63v-6.39l3.14-2.66
		l6.53,9.05h4.42l-8.25-11.46L71.71,14.31z M223,24.6c-0.91-0.66-2.08-0.87-3.17-1.01c-1.32-0.17-2.64-0.26-3.97-0.39
		c-0.66-0.06-1.49-0.22-1.49-1.05c0-0.39,0.29-0.71,0.86-0.97c0.44-0.21,1.01-0.31,1.73-0.31c1.15,0,2.11,0.14,2.87,0.41
		c0.88,0.25,1.75,0.66,2.62,1.21l1.55-2.66c-0.87-0.62-1.8-1.09-2.76-1.42c-1.31-0.44-2.59-0.66-3.83-0.66
		c-2.09,0-3.73,0.45-4.9,1.35c-1.17,0.9-1.76,2.11-1.76,3.62c0,1.17,0.45,2.07,1.35,2.69c0.64,0.48,1.82,0.82,3.52,1l1.8,0.1
		c0.9,0.07,1.58,0.14,2.04,0.21c0.39,0.07,0.71,0.19,0.95,0.36c0.24,0.17,0.4,0.33,0.47,0.48c0.07,0.15,0.1,0.29,0.1,0.43
		c0,0.58-0.33,1.01-1,1.31c-0.48,0.21-1.17,0.31-2.07,0.31c-1.2,0-2.36-0.19-3.49-0.59c-0.94-0.3-1.84-0.7-2.69-1.21l-1.62,3
		c0.83,0.51,1.92,1,3.28,1.48c1.38,0.46,2.88,0.69,4.49,0.69c2.09,0,3.73-0.41,4.9-1.24c1.24-0.92,1.86-2.21,1.86-3.87
		C224.63,26.46,224.08,25.36,223,24.6z M244.37,18.14l-6.35,5.35v-5.35h-3.56v14.47h3.56v-5.04l1.9-1.62l5.04,6.66h4.18l-6.63-8.84
		l6.7-5.63H244.37z M264.45,22.56l-3.94-4.45h-4.73l6.9,7.53v6.97h3.52V25.6l6.97-7.49h-4.83L264.45,22.56z M281.29,18.08v14.57
		h3.59V18.08H281.29z M195.22,27.29l-4.42-9.18h-3.83l7.25,14.5h2l7.25-14.5h-3.97L195.22,27.29z M177.82,19.9
		c-1.01-0.88-2.22-1.46-3.58-1.8l-1.63,2.98c1.05,0.16,1.93,0.55,2.64,1.18c0.93,0.84,1.4,1.86,1.4,3.06c0,1.22-0.46,2.26-1.36,3.11
		c-0.91,0.85-2.16,1.28-3.75,1.28c-1.54,0-2.77-0.42-3.69-1.26c-0.92-0.84-1.38-1.88-1.38-3.12c0-1.2,0.46-2.22,1.38-3.06
		c0.7-0.64,1.59-1.03,2.65-1.19l-1.63-2.98c-1.37,0.34-2.59,0.91-3.6,1.8c-1.62,1.43-2.43,3.25-2.43,5.46
		c0,2.19,0.82,4.01,2.45,5.47c1.63,1.46,3.72,2.19,6.25,2.19c2.56,0,4.65-0.73,6.28-2.18c1.63-1.45,2.45-3.28,2.45-5.49
		C180.27,23.15,179.45,21.33,177.82,19.9z M174.88,14.34h-6.66v1.14h2l1.33,2.89l1.33-2.89h2V14.34z"/>
	<path class="st1" d="M22.54,0.38C10.89,0.38,1.42,9.86,1.42,21.5c0,11.65,9.47,21.12,21.12,21.12s21.12-9.47,21.12-21.12
		C43.66,9.86,34.18,0.38,22.54,0.38z M8.32,24.56c-1.33-0.83-2.36-2.01-3.08-3.49l4.3-3.45c0,0,0.39,1.72,1.72,2.55
		c0.63,0.39,1.28,0.58,2,0.58c2.58,0,3.35-1.64,3.35-3.51V7.69h5.44v9.86c0,1.11-0.17,2.18-0.52,3.17
		c-0.35,1.02-0.91,1.92-1.65,2.69c-0.74,0.77-1.68,1.38-2.79,1.82c-1.1,0.44-2.39,0.66-3.84,0.66C11.39,25.88,9.72,25.44,8.32,24.56
		z M36.61,32.76h-6.67l-5.98-7.74l-1.9,1.5v6.24h-5.4v-4.89c0.46-0.12,0.91-0.25,1.34-0.42c1.43-0.57,2.65-1.37,3.62-2.38
		c0.98-1.02,1.72-2.22,2.19-3.57c0.36-1.03,0.56-2.12,0.62-3.25l4.82-3.87h7.63l-8.82,7.26L36.61,32.76z"/>
</g>
</svg>
