<?xml version="1.0" encoding="utf-8"?>
<!-- Generator: Adobe Illustrator 27.2.0, SVG Export Plug-In . SVG Version: 6.00 Build 0)  -->
<svg version="1.1" id="Layer_1" xmlns="http://www.w3.org/2000/svg" xmlns:xlink="http://www.w3.org/1999/xlink" x="0px" y="0px"
	 viewBox="0 0 257.95 141.73" style="enable-background:new 0 0 257.95 141.73;" xml:space="preserve">
<style type="text/css">
	.st0{fill:#FFFFFF;}
</style>
<g id="Logo_W">
	<path class="st0" d="M63.59,131.68v4.56c0,0.52-0.07,0.99-0.22,1.43c-0.14,0.44-0.37,0.81-0.67,1.13s-0.69,0.56-1.16,0.75
		c-0.47,0.18-1.04,0.27-1.7,0.27c-0.79,0-1.49-0.16-2.1-0.49c-0.61-0.33-1.08-0.81-1.41-1.44l0.96-0.53
		c0.27,0.49,0.63,0.85,1.09,1.09c0.46,0.24,0.94,0.36,1.45,0.36c0.52,0,0.94-0.06,1.28-0.19c0.34-0.12,0.61-0.31,0.81-0.54
		c0.2-0.24,0.34-0.52,0.42-0.85c0.08-0.33,0.12-0.7,0.12-1.13v-4.4h1.13V131.68z M85.31,131.68v1.02h-5.88v2.34h5.28v1.02h-5.28
		v2.52h6.09v1.03h-7.21v-7.93L85.31,131.68L85.31,131.68z M100.67,131.68l2.31,6.91h0.39l2.02-6.91h1.69l2.09,6.91h0.4l2.31-6.91
		h1.18l-2.78,7.93h-1.91l-2.01-6.75h-0.27l-1.96,6.75h-1.89l-2.77-7.93H100.67z M134.17,131.68v1.02h-5.88v2.34h5.28v1.02h-5.28
		v2.52h6.09v1.03h-7.21v-7.93L134.17,131.68L134.17,131.68z M149.77,131.68v6.9h5.93v1.03h-7.05v-7.93H149.77z M174.43,131.68
		c0.45,0,0.87,0.07,1.25,0.21c0.39,0.14,0.72,0.35,1.01,0.61s0.51,0.58,0.68,0.95s0.25,0.78,0.25,1.23c0,0.66-0.16,1.22-0.48,1.68
		s-0.74,0.8-1.27,1.02l1.26,2.22h-1.23l-1.08-1.92h-3.9v1.92h-1.12v-7.93L174.43,131.68L174.43,131.68z M170.93,136.65h3.48
		c0.62,0,1.13-0.17,1.51-0.52c0.39-0.34,0.58-0.83,0.58-1.45c0-0.6-0.19-1.08-0.58-1.44s-0.89-0.54-1.51-0.54h-3.48V136.65z
		 M192.32,131.68l3,4.76h0.22l2.94-4.76h1.3l-3.83,5.95v1.98h-1.12v-1.98l-3.81-5.95H192.32z"/>
	<path class="st0" d="M60.49,112.92h10.48v3.78H56.56v-16.06h3.94L60.49,112.92L60.49,112.92z M80.48,116.74h3.98v-16.13h-3.98
		V116.74z M106.81,109.51l-8.53-8.87h-1.91v16.06h3.75v-8.83l8.53,8.83h1.91v-16.06h-3.75V109.51z M43.11,100.64h4.32l-8.22,16.06
		h-2.45l-8.26-16.06h4.36l1.76,3.48h6.73L43.11,100.64z M39.7,107.37h-3.44l1.72,3.59L39.7,107.37z M20.49,96.44h-5.31l-9.75,8.37
		v-8.37H1.42v20.26h4.01v-7.07l3.48-2.94l7.23,10.02h4.89l-9.14-12.69L20.49,96.44z M188.02,107.83c-1.01-0.73-2.31-0.96-3.51-1.12
		c-1.46-0.19-2.93-0.29-4.39-0.43c-0.74-0.07-1.65-0.25-1.65-1.17c0-0.43,0.32-0.79,0.96-1.07c0.48-0.23,1.12-0.34,1.91-0.34
		c1.27,0,2.33,0.15,3.17,0.46c0.97,0.28,1.94,0.73,2.91,1.34l1.72-2.94c-0.97-0.69-1.99-1.21-3.06-1.57
		c-1.45-0.48-2.87-0.73-4.24-0.73c-2.32,0-4.13,0.5-5.43,1.49c-1.3,0.99-1.95,2.33-1.95,4.01c0,1.3,0.5,2.29,1.49,2.98
		c0.71,0.54,2.01,0.91,3.9,1.11l1.99,0.11c0.99,0.08,1.75,0.15,2.26,0.23c0.43,0.08,0.78,0.21,1.05,0.4s0.44,0.37,0.52,0.53
		c0.08,0.17,0.11,0.33,0.11,0.48c0,0.64-0.37,1.12-1.11,1.45c-0.54,0.23-1.3,0.34-2.29,0.34c-1.33,0-2.61-0.22-3.86-0.65
		c-1.05-0.33-2.04-0.78-2.98-1.34l-1.8,3.33c0.92,0.56,2.13,1.11,3.63,1.64c1.53,0.51,3.19,0.76,4.97,0.76
		c2.32,0,4.13-0.46,5.43-1.38c1.38-1.02,2.06-2.45,2.06-4.28C189.81,109.9,189.21,108.67,188.02,107.83z M211.68,100.68l-7.03,5.93
		v-5.93h-3.94v16.02h3.94v-5.58l2.1-1.8l5.58,7.38h4.63l-7.34-9.79l7.42-6.23L211.68,100.68L211.68,100.68z M233.91,105.58
		l-4.36-4.93h-5.24l7.65,8.33v7.72h3.9v-7.76l7.72-8.3h-5.35L233.91,105.58z M252.56,100.61v16.13h3.98v-16.13H252.56z
		 M157.25,110.81l-4.89-10.17h-4.24l8.03,16.06h2.22l8.03-16.06H162L157.25,110.81z M137.98,102.63c-1.12-0.98-2.46-1.62-3.97-1.99
		l-1.8,3.3c1.17,0.17,2.14,0.61,2.92,1.31c1.03,0.93,1.55,2.06,1.55,3.38c0,1.35-0.5,2.5-1.51,3.44s-2.39,1.41-4.15,1.41
		c-1.71,0-3.07-0.46-4.09-1.4c-1.02-0.93-1.53-2.08-1.53-3.46c0-1.32,0.51-2.45,1.53-3.38c0.78-0.71,1.76-1.14,2.94-1.31l-1.8-3.3
		c-1.52,0.37-2.86,1.01-3.98,2c-1.8,1.58-2.69,3.59-2.69,6.04c0,2.42,0.9,4.44,2.71,6.06c1.81,1.62,4.12,2.43,6.92,2.43
		c2.83,0,5.15-0.8,6.96-2.41c1.81-1.61,2.72-3.63,2.72-6.08C140.7,106.23,139.79,104.21,137.98,102.63z M134.73,96.47h-7.38v1.26
		h2.22l1.47,3.2l1.47-3.2h2.22V96.47z"/>
	<path class="st0" d="M130.73,1.93c-19.78,0-35.88,16.09-35.88,35.88c0,19.78,16.1,35.88,35.88,35.88s35.88-16.1,35.88-35.88
		C166.61,18.02,150.52,1.93,130.73,1.93z M106.59,43c-2.26-1.41-4.01-3.42-5.24-5.93l7.3-5.86c0,0.01,0.66,2.92,2.92,4.33
		c1.07,0.66,2.17,0.99,3.4,0.99c4.38,0,5.69-2.78,5.69-5.96V14.34h9.25v16.74c0,1.89-0.29,3.7-0.88,5.39
		c-0.6,1.73-1.54,3.27-2.8,4.57s-2.85,2.34-4.73,3.09c-1.86,0.74-4.06,1.11-6.53,1.11C111.79,45.24,108.97,44.49,106.59,43z
		 M154.64,56.93h-11.33l-10.15-13.16l-3.23,2.56v10.6h-9.18v-8.32c0.79-0.2,1.55-0.43,2.27-0.71c2.42-0.96,4.49-2.32,6.16-4.04
		c1.67-1.73,2.92-3.77,3.71-6.06c0.61-1.75,0.95-3.61,1.06-5.52l8.18-6.57h12.95l-14.99,12.33L154.64,56.93z"/>
</g>
</svg>
